<svg width="1858" height="678" viewBox="0 0 1858 678" fill="none" xmlns="http://www.w3.org/2000/svg">
<g clip-path="url(#clip0_2_2163)">
<g opacity="0.5">
<ellipse opacity="0.25" cx="1371.81" cy="216.553" rx="121.947" ry="121.448" fill="url(#paint0_linear_2_2163)"/>
<ellipse opacity="0.25" cx="1413.44" cy="598.003" rx="65.1976" ry="65.1976" transform="rotate(15 1413.44 598.003)" fill="url(#paint1_linear_2_2163)"/>
<ellipse opacity="0.25" cx="1631.17" cy="318.833" rx="112.54" ry="112.54" transform="rotate(15 1631.17 318.833)" fill="url(#paint2_linear_2_2163)"/>
<ellipse opacity="0.25" cx="1137.3" cy="94.4398" rx="76.9917" ry="76.9918" transform="rotate(15 1137.3 94.4398)" fill="url(#paint3_linear_2_2163)"/>
</g>
<g opacity="0.5">
<ellipse opacity="0.25" cx="121.615" cy="121.614" rx="121.615" ry="121.614" transform="matrix(-1 0 0 1 607.691 95.2383)" fill="url(#paint4_linear_2_2163)"/>
<ellipse opacity="0.25" cx="65.1975" cy="65.1973" rx="65.1975" ry="65.1973" transform="matrix(-0.965926 0.258818 0.25882 0.965926 490.457 518.277)" fill="url(#paint5_linear_2_2163)"/>
<ellipse opacity="0.25" cx="112.54" cy="112.54" rx="112.54" ry="112.54" transform="matrix(-0.965926 0.258818 0.25882 0.965926 306.207 181.133)" fill="url(#paint6_linear_2_2163)"/>
<ellipse opacity="0.25" cx="76.9916" cy="76.9913" rx="76.9916" ry="76.9913" transform="matrix(-0.965926 0.258818 0.25882 0.965926 774.941 0.269531)" fill="url(#paint7_linear_2_2163)"/>
</g>
</g>
<defs>
<linearGradient id="paint0_linear_2_2163" x1="1249.86" y1="95.1055" x2="1498.71" y2="100.292" gradientUnits="userSpaceOnUse">
<stop stop-color="#7526F2"/>
<stop offset="1" stop-opacity="0"/>
</linearGradient>
<linearGradient id="paint1_linear_2_2163" x1="1348.24" y1="532.805" x2="1481.29" y2="535.567" gradientUnits="userSpaceOnUse">
<stop stop-color="#7526F2"/>
<stop offset="1" stop-opacity="0"/>
</linearGradient>
<linearGradient id="paint2_linear_2_2163" x1="1518.63" y1="206.293" x2="1748.28" y2="211.059" gradientUnits="userSpaceOnUse">
<stop stop-color="#7526F2"/>
<stop offset="1" stop-opacity="0"/>
</linearGradient>
<linearGradient id="paint3_linear_2_2163" x1="1060.31" y1="17.448" x2="1217.42" y2="20.709" gradientUnits="userSpaceOnUse">
<stop stop-color="#7526F2"/>
<stop offset="1" stop-opacity="0"/>
</linearGradient>
<linearGradient id="paint4_linear_2_2163" x1="0" y1="0" x2="248.17" y2="5.15093" gradientUnits="userSpaceOnUse">
<stop stop-color="#7526F2"/>
<stop offset="1" stop-opacity="0"/>
</linearGradient>
<linearGradient id="paint5_linear_2_2163" x1="0" y1="0" x2="133.044" y2="2.76141" gradientUnits="userSpaceOnUse">
<stop stop-color="#7526F2"/>
<stop offset="1" stop-opacity="0"/>
</linearGradient>
<linearGradient id="paint6_linear_2_2163" x1="0" y1="0" x2="229.653" y2="4.76659" gradientUnits="userSpaceOnUse">
<stop stop-color="#7526F2"/>
<stop offset="1" stop-opacity="0"/>
</linearGradient>
<linearGradient id="paint7_linear_2_2163" x1="0" y1="0" x2="157.112" y2="3.26095" gradientUnits="userSpaceOnUse">
<stop stop-color="#7526F2"/>
<stop offset="1" stop-opacity="0"/>
</linearGradient>
<clipPath id="clip0_2_2163">
<rect width="1858" height="678" fill="white"/>
</clipPath>
</defs>
</svg>
