<svg width="32" height="33" viewBox="0 0 32 33" fill="none" xmlns="http://www.w3.org/2000/svg">
<rect y="0.779175" width="31.4417" height="31.4417" rx="4.49167" fill="white"/>
<path d="M24.8926 14.6674H24.1389V14.6286H15.717V18.3716H21.0055C20.2339 20.5505 18.1608 22.1147 15.717 22.1147C12.6164 22.1147 10.1024 19.6007 10.1024 16.5001C10.1024 13.3994 12.6164 10.8855 15.717 10.8855C17.1483 10.8855 18.4504 11.4254 19.4418 12.3074L22.0886 9.6606C20.4174 8.10302 18.1818 7.14246 15.717 7.14246C10.5493 7.14246 6.35938 11.3323 6.35938 16.5001C6.35938 21.6679 10.5493 25.8577 15.717 25.8577C20.8848 25.8577 25.0747 21.6679 25.0747 16.5001C25.0747 15.8727 25.0101 15.2602 24.8926 14.6674Z" fill="#FFC107"/>
<path d="M7.4375 12.1446L10.512 14.3993C11.3438 12.3397 13.3585 10.8855 15.7162 10.8855C17.1475 10.8855 18.4496 11.4254 19.441 12.3074L22.0878 9.6606C20.4165 8.10302 18.181 7.14246 15.7162 7.14246C12.1219 7.14246 9.0049 9.17166 7.4375 12.1446Z" fill="#FF3D00"/>
<path d="M15.7213 25.8572C18.1383 25.8572 20.3346 24.9322 21.9951 23.428L19.0989 20.9772C18.1594 21.6888 16.9916 22.1142 15.7213 22.1142C13.2873 22.1142 11.2207 20.5622 10.4422 18.3964L7.39062 20.7475C8.93931 23.7779 12.0844 25.8572 15.7213 25.8572Z" fill="#4CAF50"/>
<path d="M24.8983 14.6696H24.1445V14.6307H15.7227V18.3738H21.0111C20.6406 19.4204 19.9673 20.323 19.0989 20.9804L19.1003 20.9794L21.9965 23.4302C21.7916 23.6164 25.0803 21.1811 25.0803 16.5023C25.0803 15.8748 25.0157 15.2624 24.8983 14.6696Z" fill="#1976D2"/>
</svg>
