<svg width="21" height="21" viewBox="0 0 21 21" fill="none" xmlns="http://www.w3.org/2000/svg">
<rect x="0.955566" y="0.932541" width="19.9713" height="19.9713" rx="2.85304" fill="white"/>
<path d="M16.7672 9.75419H16.2884V9.72952H10.939V12.1071H14.2981C13.808 13.4911 12.4912 14.4846 10.939 14.4846C8.96946 14.4846 7.37265 12.8878 7.37265 10.9183C7.37265 8.9488 8.96946 7.35199 10.939 7.35199C11.8481 7.35199 12.6751 7.69495 13.3049 8.25516L14.9861 6.57394C13.9245 5.58459 12.5046 4.97446 10.939 4.97446C7.65647 4.97446 4.99512 7.63581 4.99512 10.9183C4.99512 14.2008 7.65647 16.8621 10.939 16.8621C14.2214 16.8621 16.8828 14.2008 16.8828 10.9183C16.8828 10.5198 16.8418 10.1307 16.7672 9.75419Z" fill="#FFC107"/>
<path d="M5.67969 8.15173L7.63253 9.5839C8.16094 8.27566 9.44065 7.35199 10.9382 7.35199C11.8473 7.35199 12.6744 7.69495 13.3041 8.25516L14.9854 6.57394C13.9238 5.58459 12.5038 4.97446 10.9382 4.97446C8.65517 4.97446 6.67528 6.26338 5.67969 8.15173Z" fill="#FF3D00"/>
<path d="M10.9414 16.8617C12.4767 16.8617 13.8717 16.2741 14.9264 15.3186L13.0868 13.762C12.4901 14.214 11.7483 14.4841 10.9414 14.4841C9.39541 14.4841 8.08271 13.4983 7.58819 12.1226L5.6499 13.616C6.63361 15.5409 8.63133 16.8617 10.9414 16.8617Z" fill="#4CAF50"/>
<path d="M16.7682 9.75534H16.2894V9.73067H10.9399V12.1082H14.2991C14.0637 12.773 13.6361 13.3463 13.0845 13.7639L13.0854 13.7633L14.925 15.32C14.7948 15.4382 16.8838 13.8914 16.8838 10.9194C16.8838 10.5209 16.8428 10.1319 16.7682 9.75534Z" fill="#1976D2"/>
</svg>
