<svg width="40" height="40" viewBox="0 0 40 40" fill="none" xmlns="http://www.w3.org/2000/svg">
<path d="M35.9211 11.5992C35.6023 9.83984 34.0836 8.55859 32.3211 8.15859C29.6836 7.59922 24.8023 7.19922 19.5211 7.19922C14.243 7.19922 9.28359 7.59922 6.64297 8.15859C4.88359 8.55859 3.36172 9.75859 3.04297 11.5992C2.72109 13.5992 2.40234 16.3992 2.40234 19.9992C2.40234 23.5992 2.72109 26.3992 3.12109 28.3992C3.44297 30.1586 4.96172 31.4398 6.72109 31.8398C9.52109 32.3992 14.3211 32.7992 19.6023 32.7992C24.8836 32.7992 29.6836 32.3992 32.4836 31.8398C34.243 31.4398 35.7617 30.2398 36.0836 28.3992C36.4023 26.3992 36.8023 23.518 36.8836 19.9992C36.7211 16.3992 36.3211 13.5992 35.9211 11.5992ZM15.2023 25.5992V14.3992L24.9617 19.9992L15.2023 25.5992Z" fill="#ACACAC"/>
</svg>
