<svg width="32" height="32" viewBox="0 0 32 32" fill="none" xmlns="http://www.w3.org/2000/svg">
<path d="M28.7369 9.27928C28.4819 7.87178 27.2669 6.84678 25.8569 6.52678C23.7469 6.07928 19.8419 5.75928 15.6169 5.75928C11.3944 5.75928 7.42687 6.07928 5.31437 6.52678C3.90688 6.84678 2.68938 7.80678 2.43437 9.27928C2.17688 10.8793 1.92188 13.1193 1.92188 15.9993C1.92188 18.8793 2.17688 21.1193 2.49688 22.7193C2.75437 24.1268 3.96938 25.1518 5.37688 25.4718C7.61688 25.9193 11.4569 26.2393 15.6819 26.2393C19.9069 26.2393 23.7469 25.9193 25.9869 25.4718C27.3944 25.1518 28.6094 24.1918 28.8669 22.7193C29.1219 21.1193 29.4419 18.8143 29.5069 15.9993C29.3769 13.1193 29.0569 10.8793 28.7369 9.27928ZM12.1619 20.4793V11.5193L19.9694 15.9993L12.1619 20.4793Z" fill="#ACACAC"/>
</svg>
