<svg width="40" height="40" viewBox="0 0 40 40" fill="none" xmlns="http://www.w3.org/2000/svg">
<g clip-path="url(#clip0_2_2032)">
<path d="M37.4292 10.0013C36.1458 10.5846 34.7625 10.968 33.3292 11.1513C34.7958 10.268 35.9292 8.86797 36.4625 7.18464C35.0792 8.01797 33.5458 8.6013 31.9292 8.93464C30.6125 7.5013 28.7625 6.66797 26.6625 6.66797C22.7458 6.66797 19.5458 9.86797 19.5458 13.818C19.5458 14.3846 19.6125 14.9346 19.7292 15.4513C13.7958 15.1513 8.5125 12.3013 4.99583 7.98464C4.37917 9.03464 4.02917 10.268 4.02917 11.568C4.02917 14.0513 5.27917 16.2513 7.2125 17.5013C6.02917 17.5013 4.92917 17.168 3.9625 16.668V16.718C3.9625 20.1846 6.42917 23.0846 9.69583 23.7346C8.64705 24.0216 7.54599 24.0616 6.47917 23.8513C6.93184 25.2721 7.8184 26.5153 9.01419 27.4062C10.21 28.2971 11.6549 28.7908 13.1458 28.818C10.6186 30.8187 7.48583 31.9002 4.2625 31.8846C3.69583 31.8846 3.12917 31.8513 2.5625 31.7846C5.72917 33.818 9.49583 35.0013 13.5292 35.0013C26.6625 35.0013 33.8792 24.1013 33.8792 14.6513C33.8792 14.3346 33.8792 14.0346 33.8625 13.718C35.2625 12.718 36.4625 11.4513 37.4292 10.0013Z" fill="#ACACAC"/>
</g>
<defs>
<clipPath id="clip0_2_2032">
<rect width="40" height="40" fill="white"/>
</clipPath>
</defs>
</svg>
