<svg width="32" height="32" viewBox="0 0 32 32" fill="none" xmlns="http://www.w3.org/2000/svg">
<g clip-path="url(#clip0_2_2665)">
<path d="M10.4023 2.66553H21.6023C25.8689 2.66553 29.3356 6.13219 29.3356 10.3989V21.5989C29.3356 23.6499 28.5209 25.6169 27.0706 27.0672C25.6203 28.5174 23.6533 29.3322 21.6023 29.3322H10.4023C6.13561 29.3322 2.66895 25.8655 2.66895 21.5989V10.3989C2.66895 8.34785 3.4837 6.38085 4.93399 4.93057C6.38427 3.48029 8.35127 2.66553 10.4023 2.66553ZM10.1356 5.33219C8.86257 5.33219 7.64167 5.83791 6.7415 6.73808C5.84132 7.63826 5.33561 8.85915 5.33561 10.1322V21.8655C5.33561 24.5189 7.48228 26.6655 10.1356 26.6655H21.8689C23.142 26.6655 24.3629 26.1598 25.2631 25.2596C26.1632 24.3595 26.6689 23.1386 26.6689 21.8655V10.1322C26.6689 7.47886 24.5223 5.33219 21.8689 5.33219H10.1356ZM23.0023 7.33219C23.4443 7.33219 23.8682 7.50779 24.1808 7.82035C24.4934 8.13291 24.6689 8.55683 24.6689 8.99886C24.6689 9.44089 24.4934 9.86481 24.1808 10.1774C23.8682 10.4899 23.4443 10.6655 23.0023 10.6655C22.5602 10.6655 22.1363 10.4899 21.8238 10.1774C21.5112 9.86481 21.3356 9.44089 21.3356 8.99886C21.3356 8.55683 21.5112 8.13291 21.8238 7.82035C22.1363 7.50779 22.5602 7.33219 23.0023 7.33219ZM16.0023 9.33219C17.7704 9.33219 19.4661 10.0346 20.7163 11.2848C21.9666 12.5351 22.6689 14.2308 22.6689 15.9989C22.6689 17.767 21.9666 19.4627 20.7163 20.7129C19.4661 21.9631 17.7704 22.6655 16.0023 22.6655C14.2342 22.6655 12.5385 21.9631 11.2882 20.7129C10.038 19.4627 9.33561 17.767 9.33561 15.9989C9.33561 14.2308 10.038 12.5351 11.2882 11.2848C12.5385 10.0346 14.2342 9.33219 16.0023 9.33219ZM16.0023 11.9989C14.9414 11.9989 13.924 12.4203 13.1739 13.1704C12.4237 13.9206 12.0023 14.938 12.0023 15.9989C12.0023 17.0597 12.4237 18.0771 13.1739 18.8273C13.924 19.5774 14.9414 19.9989 16.0023 19.9989C17.0631 19.9989 18.0806 19.5774 18.8307 18.8273C19.5809 18.0771 20.0023 17.0597 20.0023 15.9989C20.0023 14.938 19.5809 13.9206 18.8307 13.1704C18.0806 12.4203 17.0631 11.9989 16.0023 11.9989Z" fill="#ACACAC"/>
</g>
<defs>
<clipPath id="clip0_2_2665">
<rect width="32" height="32" fill="white"/>
</clipPath>
</defs>
</svg>
