<svg width="40" height="40" viewBox="0 0 40 40" fill="none" xmlns="http://www.w3.org/2000/svg">
<g clip-path="url(#clip0_2_2035)">
<path d="M13.0026 3.33203H27.0026C32.3359 3.33203 36.6693 7.66536 36.6693 12.9987V26.9987C36.6693 29.5625 35.6508 32.0212 33.838 33.8341C32.0251 35.6469 29.5664 36.6654 27.0026 36.6654H13.0026C7.66927 36.6654 3.33594 32.332 3.33594 26.9987V12.9987C3.33594 10.4349 4.35439 7.97618 6.16724 6.16333C7.98009 4.35048 10.4388 3.33203 13.0026 3.33203ZM12.6693 6.66536C11.078 6.66536 9.55185 7.29751 8.42663 8.42272C7.30141 9.54794 6.66927 11.0741 6.66927 12.6654V27.332C6.66927 30.6487 9.3526 33.332 12.6693 33.332H27.3359C28.9272 33.332 30.4534 32.6999 31.5786 31.5747C32.7038 30.4495 33.3359 28.9233 33.3359 27.332V12.6654C33.3359 9.3487 30.6526 6.66536 27.3359 6.66536H12.6693ZM28.7526 9.16536C29.3051 9.16536 29.835 9.38486 30.2257 9.77556C30.6164 10.1663 30.8359 10.6962 30.8359 11.2487C30.8359 11.8012 30.6164 12.3311 30.2257 12.7218C29.835 13.1125 29.3051 13.332 28.7526 13.332C28.2001 13.332 27.6702 13.1125 27.2795 12.7218C26.8888 12.3311 26.6693 11.8012 26.6693 11.2487C26.6693 10.6962 26.8888 10.1663 27.2795 9.77556C27.6702 9.38486 28.2001 9.16536 28.7526 9.16536ZM20.0026 11.6654C22.2127 11.6654 24.3324 12.5433 25.8952 14.1061C27.458 15.6689 28.3359 17.7886 28.3359 19.9987C28.3359 22.2088 27.458 24.3285 25.8952 25.8913C24.3324 27.4541 22.2127 28.332 20.0026 28.332C17.7925 28.332 15.6729 27.4541 14.11 25.8913C12.5472 24.3285 11.6693 22.2088 11.6693 19.9987C11.6693 17.7886 12.5472 15.6689 14.11 14.1061C15.6729 12.5433 17.7925 11.6654 20.0026 11.6654ZM20.0026 14.9987C18.6765 14.9987 17.4048 15.5255 16.4671 16.4632C15.5294 17.4008 15.0026 18.6726 15.0026 19.9987C15.0026 21.3248 15.5294 22.5965 16.4671 23.5342C17.4048 24.4719 18.6765 24.9987 20.0026 24.9987C21.3287 24.9987 22.6005 24.4719 23.5381 23.5342C24.4758 22.5965 25.0026 21.3248 25.0026 19.9987C25.0026 18.6726 24.4758 17.4008 23.5381 16.4632C22.6005 15.5255 21.3287 14.9987 20.0026 14.9987Z" fill="#ACACAC"/>
</g>
<defs>
<clipPath id="clip0_2_2035">
<rect width="40" height="40" fill="white"/>
</clipPath>
</defs>
</svg>
