<svg width="40" height="40" viewBox="0 0 40 40" fill="none" xmlns="http://www.w3.org/2000/svg">
<g clip-path="url(#clip0_2_2029)">
<path d="M8.33333 5H31.6667C32.5507 5 33.3986 5.35119 34.0237 5.97631C34.6488 6.60143 35 7.44928 35 8.33333V31.6667C35 32.5507 34.6488 33.3986 34.0237 34.0237C33.3986 34.6488 32.5507 35 31.6667 35H8.33333C7.44928 35 6.60143 34.6488 5.97631 34.0237C5.35119 33.3986 5 32.5507 5 31.6667V8.33333C5 7.44928 5.35119 6.60143 5.97631 5.97631C6.60143 5.35119 7.44928 5 8.33333 5ZM30 8.33333H25.8333C24.2862 8.33333 22.8025 8.94792 21.7085 10.0419C20.6146 11.1358 20 12.6196 20 14.1667V18.3333H16.6667V23.3333H20V35H25V23.3333H30V18.3333H25V15C25 14.558 25.1756 14.134 25.4882 13.8215C25.8007 13.5089 26.2246 13.3333 26.6667 13.3333H30V8.33333Z" fill="#ACACAC"/>
</g>
<defs>
<clipPath id="clip0_2_2029">
<rect width="40" height="40" fill="white"/>
</clipPath>
</defs>
</svg>
