<svg width="32" height="32" viewBox="0 0 32 32" fill="none" xmlns="http://www.w3.org/2000/svg">
<g clip-path="url(#clip0_2_2659)">
<path d="M6.66667 4H25.3333C26.0406 4 26.7189 4.28095 27.219 4.78105C27.719 5.28115 28 5.95942 28 6.66667V25.3333C28 26.0406 27.719 26.7189 27.219 27.219C26.7189 27.719 26.0406 28 25.3333 28H6.66667C5.95942 28 5.28115 27.719 4.78105 27.219C4.28095 26.7189 4 26.0406 4 25.3333V6.66667C4 5.95942 4.28095 5.28115 4.78105 4.78105C5.28115 4.28095 5.95942 4 6.66667 4ZM24 6.66667H20.6667C19.429 6.66667 18.242 7.15833 17.3668 8.0335C16.4917 8.90867 16 10.0957 16 11.3333V14.6667H13.3333V18.6667H16V28H20V18.6667H24V14.6667H20V12C20 11.6464 20.1405 11.3072 20.3905 11.0572C20.6406 10.8071 20.9797 10.6667 21.3333 10.6667H24V6.66667Z" fill="#ACACAC"/>
</g>
<defs>
<clipPath id="clip0_2_2659">
<rect width="32" height="32" fill="white"/>
</clipPath>
</defs>
</svg>
