<svg width="32" height="32" viewBox="0 0 32 32" fill="none" xmlns="http://www.w3.org/2000/svg">
<g clip-path="url(#clip0_2_2662)">
<path d="M29.9431 8.00114C28.9165 8.46781 27.8098 8.77447 26.6631 8.92114C27.8365 8.21447 28.7431 7.09447 29.1698 5.74781C28.0631 6.41447 26.8365 6.88114 25.5431 7.14781C24.4898 6.00114 23.0098 5.33447 21.3298 5.33447C18.1965 5.33447 15.6365 7.89447 15.6365 11.0545C15.6365 11.5078 15.6898 11.9478 15.7831 12.3611C11.0365 12.1211 6.8098 9.84114 3.99647 6.38781C3.50314 7.22781 3.22314 8.21447 3.22314 9.25447C3.22314 11.2411 4.22314 13.0011 5.7698 14.0011C4.82314 14.0011 3.94314 13.7345 3.1698 13.3345V13.3745C3.1698 16.1478 5.14314 18.4678 7.75647 18.9878C6.91744 19.2174 6.0366 19.2494 5.18314 19.0811C5.54528 20.2178 6.25452 21.2123 7.21116 21.925C8.1678 22.6377 9.32373 23.0327 10.5165 23.0545C8.49464 24.6551 5.98847 25.5202 3.4098 25.5078C2.95647 25.5078 2.50314 25.4811 2.0498 25.4278C4.58314 27.0545 7.59647 28.0011 10.8231 28.0011C21.3298 28.0011 27.1031 19.2811 27.1031 11.7211C27.1031 11.4678 27.1031 11.2278 27.0898 10.9745C28.2098 10.1745 29.1698 9.16114 29.9431 8.00114Z" fill="#ACACAC"/>
</g>
<defs>
<clipPath id="clip0_2_2662">
<rect width="32" height="32" fill="white"/>
</clipPath>
</defs>
</svg>
