<svg width="18" height="19" viewBox="0 0 18 19" fill="none" xmlns="http://www.w3.org/2000/svg">
<mask id="mask0_2_2411" style="mask-type:alpha" maskUnits="userSpaceOnUse" x="0" y="0" width="18" height="19">
<rect x="0.431152" y="0.991791" width="17.2262" height="17.2262" fill="#D9D9D9"/>
</mask>
<g mask="url(#mask0_2_2411)">
<path d="M11.9886 10.5378L10.9478 9.49704C11.0555 8.93479 10.894 8.40843 10.4633 7.91797C10.0327 7.4275 9.4764 7.23609 8.79453 7.34376L7.75378 6.30301C7.95714 6.20731 8.1635 6.13553 8.37284 6.08768C8.58219 6.03983 8.80649 6.0159 9.04574 6.0159C9.94294 6.0159 10.7056 6.32992 11.3336 6.95796C11.9616 7.586 12.2757 8.34862 12.2757 9.24582C12.2757 9.48507 12.2517 9.70937 12.2039 9.91872C12.156 10.1281 12.0843 10.3344 11.9886 10.5378ZM14.2854 12.7987L13.2446 11.7939C13.6992 11.4469 14.103 11.0671 14.4559 10.6544C14.8088 10.2417 15.1108 9.77218 15.362 9.24582C14.7639 8.03759 13.9056 7.07759 12.7871 6.36581C11.6686 5.65403 10.4214 5.29814 9.04574 5.29814C8.69883 5.29814 8.35789 5.32207 8.02294 5.36992C7.68798 5.41777 7.35901 5.48955 7.03602 5.58525L5.92349 4.47272C6.41396 4.26935 6.91639 4.11683 7.43078 4.01515C7.94518 3.91347 8.4835 3.86262 9.04574 3.86262C10.8521 3.86262 12.4611 4.36206 13.8727 5.36095C15.2843 6.35983 16.3071 7.65479 16.9411 9.24582C16.666 9.95162 16.3041 10.6066 15.8555 11.2107C15.4069 11.8148 14.8835 12.3442 14.2854 12.7987ZM14.6443 17.213L11.6297 14.2343C11.211 14.3658 10.7893 14.4645 10.3646 14.5303C9.93995 14.5961 9.50032 14.629 9.04574 14.629C7.23938 14.629 5.6304 14.1296 4.21881 13.1307C2.80722 12.1318 1.78441 10.8369 1.15039 9.24582C1.40161 8.6118 1.71862 8.02264 2.10142 7.47834C2.48423 6.93404 2.92086 6.44656 3.41133 6.0159L1.43749 4.00618L2.44236 3.00131L15.6491 16.2081L14.6443 17.213ZM4.4162 7.02077C4.06928 7.3318 3.75227 7.67273 3.46516 8.04357C3.17806 8.41442 2.93283 8.81517 2.72946 9.24582C3.32759 10.454 4.18591 11.4141 5.30442 12.1258C6.42293 12.8376 7.67004 13.1935 9.04574 13.1935C9.285 13.1935 9.51827 13.1785 9.74556 13.1486C9.97285 13.1187 10.2061 13.0858 10.4454 13.0499L9.79939 12.3681C9.6678 12.404 9.54219 12.4309 9.42257 12.4488C9.30294 12.4668 9.17733 12.4757 9.04574 12.4757C8.14854 12.4757 7.38592 12.1617 6.75789 11.5337C6.12985 10.9056 5.81583 10.143 5.81583 9.24582C5.81583 9.11423 5.8248 8.98862 5.84274 8.869C5.86069 8.74937 5.8876 8.62376 5.92349 8.49217L4.4162 7.02077Z" fill="#AEAEAE"/>
</g>
</svg>
