<svg width="28" height="28" viewBox="0 0 28 28" fill="none" xmlns="http://www.w3.org/2000/svg">
<mask id="mask0_2_2310" style="mask-type:alpha" maskUnits="userSpaceOnUse" x="0" y="0" width="28" height="28">
<rect x="0.0820312" y="0.640076" width="27.12" height="27.12" fill="#D9D9D9"/>
</mask>
<g mask="url(#mask0_2_2310)">
<path d="M18.2778 15.6691L16.6393 14.0306C16.8088 13.1455 16.5546 12.3168 15.8766 11.5446C15.1986 10.7725 14.3228 10.4711 13.2493 10.6406L11.6108 9.00214C11.931 8.85147 12.2559 8.73847 12.5855 8.66314C12.9151 8.58781 13.2682 8.55014 13.6448 8.55014C15.0573 8.55014 16.258 9.04452 17.2467 10.0333C18.2355 11.022 18.7298 12.2226 18.7298 13.6351C18.7298 14.0118 18.6922 14.3649 18.6168 14.6945C18.5415 15.0241 18.4285 15.349 18.2778 15.6691ZM21.8938 19.2286L20.2553 17.6466C20.971 17.1005 21.6066 16.5025 22.1622 15.8528C22.7178 15.203 23.1933 14.4638 23.5888 13.6351C22.6472 11.733 21.2959 10.2216 19.535 9.10102C17.7741 7.98043 15.8107 7.42014 13.6448 7.42014C13.0987 7.42014 12.5619 7.45781 12.0346 7.53314C11.5073 7.60847 10.9893 7.72147 10.4808 7.87214L8.72934 6.12064C9.50151 5.80047 10.2925 5.56035 11.1023 5.40026C11.9122 5.24018 12.7597 5.16014 13.6448 5.16014C16.4887 5.16014 19.0218 5.94643 21.2441 7.51901C23.4664 9.0916 25.0767 11.1303 26.0748 13.6351C25.6417 14.7463 25.072 15.7774 24.3657 16.7285C23.6595 17.6796 22.8355 18.513 21.8938 19.2286ZM22.4588 26.1781L17.7128 21.4886C17.0537 21.6958 16.3898 21.8512 15.7212 21.9548C15.0526 22.0584 14.3605 22.1101 13.6448 22.1101C10.801 22.1101 8.26793 21.3239 6.04559 19.7513C3.82326 18.1787 2.21301 16.14 1.21484 13.6351C1.61034 12.637 2.10943 11.7094 2.71209 10.8525C3.31476 9.9956 4.00218 9.22814 4.77434 8.55014L1.66684 5.38614L3.24884 3.80414L24.0408 24.5961L22.4588 26.1781ZM6.35634 10.1321C5.81018 10.6218 5.31109 11.1586 4.85909 11.7424C4.40709 12.3262 4.02101 12.9571 3.70084 13.6351C4.64251 15.5373 5.9938 17.0487 7.75472 18.1693C9.51564 19.2899 11.479 19.8501 13.6448 19.8501C14.0215 19.8501 14.3888 19.8266 14.7466 19.7795C15.1044 19.7324 15.4717 19.6806 15.8483 19.6241L14.8313 18.5506C14.6242 18.6071 14.4264 18.6495 14.2381 18.6778C14.0498 18.706 13.852 18.7201 13.6448 18.7201C12.2323 18.7201 11.0317 18.2258 10.043 17.237C9.05422 16.2483 8.55984 15.0476 8.55984 13.6351C8.55984 13.428 8.57397 13.2302 8.60222 13.0419C8.63047 12.8536 8.67284 12.6558 8.72934 12.4486L6.35634 10.1321Z" fill="#AEAEAE"/>
</g>
</svg>
